<?xml version="1.0" standalone="no"?>
<!DOCTYPE svg PUBLIC "-//W3C//DTD SVG 20010904//EN"
 "http://www.w3.org/TR/2001/REC-SVG-20010904/DTD/svg10.dtd">
<svg version="1.0" xmlns="http://www.w3.org/2000/svg"
 width="256.000000pt" height="256.000000pt" viewBox="0 0 256.000000 256.000000"
 preserveAspectRatio="xMidYMid meet">
<metadata>
Created by potrace 1.14, written by Peter Selinger 2001-2017
</metadata>
<g transform="translate(0.000000,256.000000) scale(0.100000,-0.100000)"
fill="#000000" stroke="none">
<path d="M1165 2328 c-27 -4 -63 -10 -80 -12 -16 -2 -31 -5 -32 -6 -3 -3 -8
-4 -43 -16 -14 -4 -60 -25 -103 -47 -92 -46 -231 -174 -271 -251 -14 -27 -26
-45 -27 -40 0 5 -5 -2 -10 -16 -6 -14 -10 -26 -9 -28 0 -1 -7 -17 -16 -35 -10
-17 -21 -48 -26 -67 -15 -61 -16 -65 -18 -65 -3 0 -11 -84 -13 -147 -2 -38 0
-68 3 -68 3 0 6 -18 5 -40 -1 -22 2 -40 5 -40 4 0 7 -6 8 -12 1 -26 13 -72 22
-88 5 -10 6 -20 3 -24 -3 -3 -1 -6 5 -6 7 0 11 -3 10 -7 -2 -9 33 -85 43 -93
3 -3 12 -20 20 -37 8 -18 18 -33 22 -33 5 0 5 -4 2 -10 -3 -5 -2 -10 3 -10 5
0 12 -8 15 -17 7 -24 49 -94 65 -111 7 -8 10 -17 7 -22 -3 -5 -1 -10 3 -12 9
-3 20 -21 59 -98 10 -19 23 -38 28 -42 7 -5 7 -8 0 -8 -5 0 -5 -4 2 -8 6 -4
30 -43 52 -87 23 -44 41 -75 41 -70 0 5 14 -17 30 -50 17 -33 39 -73 50 -90
11 -16 26 -43 34 -60 8 -16 29 -52 45 -80 17 -27 37 -63 45 -80 9 -16 32 -57
51 -90 20 -33 39 -68 42 -77 9 -29 28 -21 43 17 8 19 17 35 21 35 4 0 9 8 12
17 5 16 42 84 104 188 12 22 30 54 38 72 8 17 19 35 25 38 6 4 8 11 5 16 -4 5
-2 9 3 9 5 0 15 15 23 32 7 18 16 35 20 38 3 3 16 23 28 45 12 22 37 67 56
100 19 33 45 80 57 105 13 25 28 50 34 57 6 6 17 25 24 42 7 17 17 31 22 31 5
0 7 4 3 9 -3 5 0 16 7 23 7 8 21 29 32 48 10 19 28 51 39 70 98 169 137 268
153 384 8 67 5 226 -6 226 -3 0 -7 13 -8 30 -1 16 -7 42 -14 57 -6 15 -10 34
-9 41 1 6 -3 12 -9 12 -5 0 -9 3 -8 8 2 12 -33 86 -46 94 -6 4 -8 8 -3 8 12 0
-89 124 -131 161 -71 62 -92 79 -92 71 0 -4 -4 -2 -8 4 -14 22 -173 92 -194
86 -5 -1 -8 2 -8 7 0 5 -8 8 -17 6 -10 -1 -25 1 -34 6 -24 12 -174 17 -234 7z
m200 -88 c131 -27 233 -75 309 -144 21 -20 41 -36 43 -36 8 0 34 -30 26 -30
-4 0 -1 -6 8 -13 36 -28 100 -143 128 -228 25 -76 36 -241 19 -272 -6 -12 -6
-17 0 -13 16 10 -35 -150 -68 -212 -115 -216 -334 -346 -579 -343 -42 0 -87 3
-101 5 -14 3 -38 8 -55 11 -87 17 -217 90 -294 165 -35 34 -101 115 -101 124
0 5 -9 21 -21 37 -11 16 -17 29 -12 29 4 0 3 4 -3 8 -7 4 -22 41 -34 82 -26
86 -37 270 -17 270 7 0 6 4 -3 10 -11 7 -11 10 -2 10 7 0 11 4 8 9 -18 28 71
234 126 289 17 18 28 32 24 32 -3 0 16 19 42 43 26 23 50 47 54 52 4 6 8 6 8
1 0 -5 10 -1 23 10 42 38 136 82 160 76 4 -1 7 2 7 6 0 5 6 9 13 10 6 0 32 5
57 10 57 11 183 13 235 2z"/>
<path d="M897 1958 c-2 -7 8 -24 22 -38 14 -14 35 -36 46 -49 18 -21 18 -24 3
-18 -10 4 -18 2 -18 -4 0 -6 -4 -7 -10 -4 -5 3 -10 -1 -10 -9 0 -18 22 -25 75
-23 l40 2 3 56 c2 44 -1 58 -13 62 -8 4 -16 2 -16 -3 -1 -6 -2 -14 -3 -19 -3
-24 -17 -19 -53 19 -41 42 -58 49 -66 28z"/>
<path d="M1541 1925 c-22 -24 -41 -44 -42 -42 0 1 -2 12 -3 24 -3 29 -8 34
-25 24 -16 -10 -21 -98 -6 -111 5 -4 33 -8 61 -7 39 2 50 6 51 19 1 9 -5 19
-13 22 -8 3 -14 0 -14 -7 0 -8 -3 -8 -9 2 -6 9 4 26 33 55 41 40 49 66 21 66
-7 0 -31 -20 -54 -45z"/>
<path d="M1251 1852 c-1 -7 -5 -11 -9 -8 -8 5 -68 -8 -102 -21 -8 -3 -19 -5
-23 -4 -5 1 -6 -2 -3 -7 3 -5 -5 -15 -18 -22 -13 -7 -32 -28 -42 -46 -10 -19
-22 -34 -26 -34 -5 0 -7 -3 -7 -7 1 -5 0 -10 -1 -13 -22 -57 -15 -189 11 -198
5 -2 7 -7 4 -11 -2 -5 15 -28 38 -52 44 -46 157 -101 157 -76 0 8 3 8 9 -2 6
-9 10 -10 16 -2 5 9 10 9 21 0 8 -6 14 -7 14 -2 0 5 9 9 20 10 32 3 89 34 122
67 68 68 92 187 53 271 -18 38 -105 136 -105 118 0 -4 -4 -3 -8 2 -9 14 -90
38 -101 30 -5 -3 -12 1 -14 7 -4 10 -6 10 -6 0z m70 -112 c12 0 59 -46 59 -58
0 -7 5 -12 11 -12 5 0 7 -4 4 -10 -3 -5 -2 -10 3 -10 18 0 11 -85 -10 -127
-19 -37 -60 -70 -80 -65 -5 1 -8 -2 -8 -7 0 -4 -23 -7 -51 -5 -109 7 -177 109
-139 209 25 65 104 109 170 94 19 -5 38 -9 41 -9z"/>
<path d="M953 1382 c-34 -5 -31 -41 2 -37 14 1 25 -1 25 -4 0 -4 -20 -27 -45
-51 -25 -24 -45 -48 -45 -52 0 -22 43 -3 83 37 38 39 44 42 40 22 -3 -17 1
-26 13 -31 9 -3 19 -5 21 -2 6 6 6 107 0 113 -7 6 -64 9 -94 5z"/>
<path d="M1490 1380 c-30 -4 -34 -8 -34 -35 0 -52 13 -100 24 -89 6 6 12 21
15 34 5 25 15 40 15 23 0 -6 16 -27 35 -47 33 -34 58 -45 68 -28 5 7 -27 52
-37 52 -3 0 -16 11 -30 25 -21 21 -22 25 -7 25 15 0 65 29 51 30 -3 0 -19 4
-35 8 -17 4 -46 5 -65 2z"/>
</g>
</svg>
